<svg width="303" height="50" viewBox="0 0 303 50" fill="none" xmlns="http://www.w3.org/2000/svg">
<path d="M45.0245 20.3415V27.2874H47.7691C45.9708 40.4273 33.8698 49.6205 20.7407 47.8205C7.61157 46.0205 -1.57343 33.9095 0.224845 20.7696C0.936581 15.5684 3.33176 10.7436 7.04406 7.03452C7.70004 7.03877 8.34906 7.17337 8.95293 7.43012C9.47105 7.68536 9.88798 8.10831 10.1364 8.63032C10.5037 9.88703 10.6546 11.1975 10.583 12.505V29.9364C10.583 32.908 10.9518 35.3151 11.8977 37.0734C13.0219 38.9938 14.7253 40.5078 16.7635 41.3981C18.4467 42.2243 20.831 42.6387 23.9164 42.6417C27.6147 42.6417 30.5335 41.8593 32.6729 40.2945C34.5494 39.0737 35.9695 37.2655 36.7113 35.1519C37.2642 33.2863 37.5405 30.2536 37.5399 26.0529V12.467C37.4833 11.4442 37.599 10.4197 37.8817 9.43552C38.1378 8.67924 38.6495 8.03599 39.3285 7.61669C39.8363 7.32195 40.4002 7.13661 40.9835 7.0725C44.5716 10.6734 46.9252 15.321 47.7054 20.3461H45.0236L45.0245 20.3415ZM35.332 12.467V27.0495C35.332 30.8473 34.9954 33.5108 34.3224 35.0401C33.6901 36.5198 32.6272 37.7744 31.2719 38.6404C29.7893 39.5443 28.0768 39.9977 26.3418 39.9454C24.8793 40.0016 23.4304 39.6452 22.1602 38.9172C21.1282 38.311 20.2998 37.4113 19.7808 36.3327C19.2975 35.295 18.9015 33.1341 18.9015 29.9339V12.505C18.7757 6.64255 13.6118 6.06281 13.6118 6.06281L8.1109 6.04094C17.1729 -2.0104 30.8171 -2.01405 39.883 6.03243H38.5426C38.5426 6.03243 35.332 6.14667 35.332 12.467Z" fill="#A0C74F"/>
<path d="M142.869 33.1038C140.571 35.1371 137.14 36.2185 132.093 36.2185H120.714V17.3648H127.146V31.257L131.673 31.1737C134.791 31.1737 136.917 30.5964 138.048 29.4412C139.179 28.2863 139.744 26.3137 139.744 23.5238C139.744 20.7338 139.179 18.7613 138.048 17.6063C136.917 16.4511 134.792 15.8741 131.673 15.8747H127.146H118.241L120.714 10.9132H132.093C137.141 10.9132 140.571 11.9095 142.869 13.9447C145.167 15.9796 146.315 19.1712 146.315 23.5247C146.315 27.8782 145.167 31.0713 142.869 33.1038ZM95.4845 36.2215H94.0004V10.9147H117.251L114.778 15.8762H100.432V20.8375H112.307C113.38 20.8375 115.275 21.3756 115.275 23.3187C115.275 25.0552 114.209 25.799 112.307 25.799H100.432V31.257H112.307C115.977 31.257 117.254 32.6936 117.254 35.7217V36.2215H95.4845ZM83.6113 30.2677V17.3648L77.2702 34.5653C77.0945 35.0104 76.7987 35.3978 76.4161 35.6843C75.9028 36.0088 75.3138 36.193 74.7072 36.2185H72.7286C72.2223 36.189 71.7375 36.0022 71.3421 35.6843C70.9591 35.3981 70.6631 35.0104 70.488 34.5653L64.3205 17.3648V30.2677C64.3205 34.0095 63.4245 36.2215 58.3848 36.2215H57.89L57.8994 27.2906H60.3637V20.3416H57.9079L57.9164 12.5904L57.89 10.9147H65.8049C67.1592 10.9147 68.4455 11.6142 68.7372 12.5549L73.8803 27.6014L79.023 12.5549C79.3175 11.6142 80.5429 10.9147 82.1296 10.9147H90.0451V36.2215H89.5518C84.6933 36.2215 83.6113 34.482 83.6113 30.2643V30.2677Z" fill="#5E419D"/>
<path d="M59.3714 26.2957H55.4107V30.7604H50.4636V26.2957H46.0142V21.3333H50.4667V17.3647H55.4137V21.3333H59.3747V26.2957H59.3714Z" fill="#A0C74F"/>
<path d="M176.251 3.29435H179.652L181.053 7.48106L182.436 3.29435H185.622L182.299 11.1379C182.025 11.7717 181.789 12.2448 181.586 12.5571C181.384 12.8668 181.082 13.1247 180.686 13.3259C180.287 13.5267 179.74 13.6261 179.044 13.6261C178.676 13.6261 178.041 13.5741 177.143 13.4678V11.3673C177.674 11.4241 178.06 11.4499 178.303 11.4499C179.027 11.4499 179.466 11.1804 179.624 10.6411L176.251 3.29435ZM186.7 3.29435H191.904C193.036 3.29435 193.885 3.56387 194.449 4.10563C195.012 4.64495 195.295 5.41612 195.295 6.41183C195.295 7.43852 194.989 8.24038 194.373 8.81738C193.757 9.39469 192.819 9.68304 191.557 9.68304H189.845V13.4535H186.7V3.29435ZM189.845 7.62539H190.611C191.215 7.62539 191.637 7.52117 191.882 7.3106C192.125 7.10004 192.248 6.83053 192.248 6.50419C192.248 6.18485 192.142 5.9126 191.929 5.69292C191.72 5.47051 191.321 5.3593 190.736 5.3593H189.845V7.62539ZM203.166 11.7765H199.6L199.11 13.4535H195.911L199.718 3.29435H203.131L206.94 13.4535H203.664L203.166 11.7765ZM202.511 9.57913L201.39 5.92688L200.277 9.57913H202.511ZM217.25 13.4535H214.12V5.78985H211.672V8.91431C211.672 10.1987 211.606 11.1424 211.469 11.7456C211.332 12.349 211.016 12.7911 210.516 13.0728C210.016 13.3541 209.21 13.496 208.094 13.496C207.752 13.496 207.36 13.4583 206.919 13.3848V11.3272H207.389C207.813 11.3272 208.113 11.2324 208.287 11.0455C208.462 10.8586 208.549 10.5156 208.549 10.0167V3.29435H217.25V13.4535ZM222.461 7.20882H224.133C225.666 7.20882 226.803 7.48106 227.546 8.02495C228.287 8.56671 228.657 9.4111 228.657 10.556C228.657 11.4949 228.317 12.2117 227.638 12.7084C226.959 13.2052 225.985 13.4535 224.713 13.4535H219.335V3.29435H222.461V7.20882ZM222.461 11.2703H224.062C225.044 11.2703 225.534 10.9154 225.534 10.2035C225.534 9.57913 225.044 9.26677 224.062 9.26677H222.461V11.2703ZM237.021 9.30232L239.764 10.1349C239.58 10.906 239.29 11.5493 238.894 12.0673C238.498 12.5854 238.005 12.9755 237.417 13.2384C236.83 13.503 236.082 13.6334 235.177 13.6334C234.075 13.6334 233.174 13.4723 232.478 13.153C231.78 12.8315 231.176 12.266 230.669 11.4572C230.164 10.6481 229.91 9.61437 229.91 8.35371C229.91 6.67192 230.355 5.37814 231.247 4.47693C232.138 3.57329 233.4 3.12177 235.03 3.12177C236.306 3.12177 237.309 3.37943 238.04 3.89749C238.771 4.41555 239.314 5.21011 239.668 6.28178L236.903 6.8992C236.806 6.58927 236.705 6.3623 236.599 6.21797C236.424 5.97884 236.21 5.79441 235.957 5.66436C235.703 5.53431 235.42 5.47051 235.106 5.47051C234.398 5.47051 233.853 5.75673 233.476 6.32918C233.19 6.75487 233.047 7.42181 233.047 8.33244C233.047 9.46063 233.219 10.2318 233.559 10.6505C233.901 11.0692 234.379 11.2773 234.995 11.2773C235.594 11.2773 236.047 11.1093 236.354 10.7711C236.66 10.4354 236.882 9.94557 237.021 9.30232ZM250.496 13.4535H246.973L245.755 10.8279C245.465 10.2081 245.239 9.82038 245.079 9.66663C244.916 9.51046 244.694 9.4348 244.409 9.4348V13.4535H241.283V3.29435H244.409V7.19484C244.68 7.18299 244.892 7.08606 245.043 6.90375C245.196 6.72418 245.432 6.20855 245.755 5.35231C245.991 4.72061 246.227 4.26636 246.468 3.99199C246.706 3.71549 247.095 3.5189 247.635 3.39827C248.173 3.27764 249.02 3.2187 250.171 3.2187V5.36629H250.013C249.477 5.36629 249.081 5.46808 248.824 5.67135C248.565 5.87493 248.355 6.20369 248.187 6.65794C248.022 7.11432 247.843 7.4525 247.652 7.67735C247.461 7.90189 247.199 8.08177 246.869 8.21425C247.319 8.36313 247.713 8.61867 248.051 8.98055C248.385 9.34243 248.744 9.90789 249.121 10.6742L250.496 13.4535ZM261.311 3.29435V13.4535H258.368V7.87606L254.572 13.4535H251.622V3.29435H254.572V8.91431L258.389 3.29435H261.311ZM273.1 3.29435V13.4535H270.157V7.87606L266.361 13.4535H263.411V3.29435H266.361V8.91431L270.178 3.29435H273.1ZM270.805 0.79187C270.709 1.37586 270.428 1.8444 269.965 2.20385C269.503 2.56117 268.951 2.74075 268.312 2.74075C267.675 2.74075 267.126 2.56117 266.658 2.19929C266.194 1.83953 265.916 1.37131 265.824 0.79187H267.027C267.22 1.37131 267.637 1.65996 268.284 1.65996C268.975 1.65996 269.414 1.37131 269.602 0.79187H270.805ZM177.171 20.4617H181.289L182.879 26.6423L184.462 20.4617H188.566V30.6208H186.009V22.8743L184.026 30.6208H181.712L179.735 22.8743V30.6208H177.171V20.4617ZM190.557 20.4617H198.944V22.6306H193.694V24.2461H198.565V26.3184H193.694V28.3195H199.098V30.6208H190.557V20.4617ZM211.41 32.8325H208.889V30.6208H202.421V32.8325H199.905V28.2791H200.949C201.534 26.6377 201.827 24.7879 201.827 22.7278V20.4617H210.318V28.2791H211.41V32.8325ZM207.188 28.2791V22.9572H204.674V23.0873C204.674 24.4922 204.436 26.2236 203.961 28.2791H207.188ZM222.336 20.4617V30.6208H219.392V25.0434L215.597 30.6208H212.646V20.4617H215.597V26.0817L219.414 20.4617H222.336ZM235.224 32.8325H232.708V30.6208H224.442V20.4617H227.568V28.1253H231.009V20.4617H234.132V28.2791H235.224V32.8325ZM246.294 20.4617V30.6208H243.35V25.0434L239.555 30.6208H236.604V20.4617H239.555V26.0817L243.371 20.4617H246.294ZM248.4 20.4617H251.53V24.0167H254.953V20.4617H258.097V30.6208H254.953V26.5122H251.53V30.6208H248.4V20.4617ZM266.921 26.4697L269.664 27.3022C269.48 28.0734 269.19 28.7166 268.794 29.2347C268.397 29.7527 267.904 30.1429 267.317 30.4057C266.73 30.6704 265.982 30.8007 265.076 30.8007C263.975 30.8007 263.074 30.6397 262.378 30.3203C261.68 29.9989 261.076 29.4334 260.569 28.6246C260.064 27.8154 259.809 26.7817 259.809 25.5211C259.809 23.8393 260.255 22.5455 261.147 21.6443C262.038 20.7406 263.3 20.2891 264.93 20.2891C266.206 20.2891 267.208 20.5468 267.94 21.0648C268.671 21.5829 269.213 22.3775 269.567 23.4491L266.803 24.0666C266.706 23.7566 266.604 23.5297 266.498 23.3853C266.324 23.1462 266.109 22.9618 265.857 22.8317C265.602 22.7017 265.319 22.6379 265.005 22.6379C264.298 22.6379 263.753 22.9241 263.376 23.4965C263.09 23.9222 262.946 24.5892 262.946 25.4998C262.946 26.628 263.119 27.3991 263.458 27.8178C263.8 28.2365 264.279 28.4447 264.895 28.4447C265.494 28.4447 265.947 28.2767 266.253 27.9385C266.56 27.6027 266.781 27.1129 266.921 26.4697ZM280.396 30.6208H276.872L275.655 27.9953C275.365 27.3754 275.138 26.9877 274.978 26.834C274.815 26.6778 274.594 26.6022 274.308 26.6022V30.6208H271.183V20.4617H274.308V24.3622C274.579 24.3503 274.792 24.2534 274.943 24.0711C275.096 23.8915 275.332 23.3759 275.655 22.5197C275.891 21.888 276.127 21.4337 276.367 21.1593C276.605 20.8828 276.995 20.6863 277.535 20.5656C278.073 20.445 278.919 20.3861 280.071 20.3861V22.5336H279.913C279.377 22.5336 278.981 22.6354 278.724 22.8387C278.464 23.0423 278.254 23.371 278.087 23.8253C277.922 24.2817 277.743 24.6199 277.551 24.8447C277.361 25.0692 277.098 25.2491 276.768 25.3816C277.219 25.5305 277.613 25.786 277.95 26.1479C278.285 26.5098 278.643 27.0752 279.021 27.8415L280.396 30.6208ZM291.211 20.4617V30.6208H288.267V25.0434L284.472 30.6208H281.521V20.4617H284.472V26.0817L288.288 20.4617H291.211ZM303 20.4617V30.6208H300.056V25.0434L296.261 30.6208H293.31V20.4617H296.261V26.0817L300.077 20.4617H303ZM300.705 17.9592C300.608 18.5432 300.327 19.0118 299.865 19.3712C299.403 19.7285 298.851 19.9081 298.211 19.9081C297.575 19.9081 297.025 19.7285 296.558 19.3666C296.094 19.0069 295.815 18.5387 295.723 17.9592H296.926C297.119 18.5387 297.537 18.8273 298.183 18.8273C298.874 18.8273 299.313 18.5387 299.502 17.9592H300.705ZM186.417 47.7882H182.893L181.676 45.1627C181.386 44.5428 181.16 44.1551 180.999 44.0014C180.837 43.8452 180.615 43.7695 180.329 43.7695V47.7882H177.204V37.6291H180.329V41.5296C180.6 41.5177 180.813 41.4208 180.964 41.2385C181.117 41.0589 181.353 40.5433 181.676 39.687C181.912 39.0553 182.148 38.6011 182.388 38.3267C182.627 38.0502 183.016 37.8536 183.556 37.733C184.094 37.6124 184.941 37.5534 186.092 37.5534V39.701H185.934C185.398 39.701 185.002 39.8028 184.745 40.0061C184.485 40.2096 184.276 40.5384 184.108 40.9927C183.943 41.449 183.764 41.7872 183.573 42.0121C183.382 42.2366 183.12 42.4165 182.79 42.549C183.24 42.6978 183.634 42.9534 183.971 43.3153C184.306 43.6771 184.665 44.2426 185.042 45.0089L186.417 47.7882ZM187.141 42.7146C187.141 41.0565 187.604 39.7648 188.524 38.8423C189.446 37.9177 190.729 37.4565 192.373 37.4565C194.06 37.4565 195.359 37.9104 196.272 38.8189C197.183 39.7247 197.64 40.9972 197.64 42.6316C197.64 43.819 197.439 44.7938 197.041 45.5528C196.642 46.3121 196.067 46.9037 195.314 47.327C194.559 47.7502 193.623 47.9608 192.498 47.9608C191.357 47.9608 190.411 47.7788 189.66 47.4145C188.913 47.0477 188.307 46.4707 187.84 45.6807C187.375 44.8907 187.141 43.902 187.141 42.7146ZM190.274 42.7288C190.274 43.7552 190.462 44.4908 190.842 44.9402C191.222 45.3875 191.741 45.612 192.394 45.612C193.067 45.612 193.588 45.3921 193.956 44.9545C194.324 44.5145 194.51 43.727 194.51 42.5915C194.51 41.6335 194.316 40.9358 193.932 40.4959C193.548 40.0535 193.026 39.8335 192.366 39.8335C191.736 39.8335 191.229 40.0559 190.847 40.5053C190.465 40.9522 190.274 41.6951 190.274 42.7288ZM208.634 47.7882H205.504V40.1246H203.056V43.249C203.056 44.5334 202.99 45.4771 202.853 46.0803C202.716 46.6837 202.4 47.1258 201.9 47.4075C201.4 47.6888 200.593 47.8307 199.477 47.8307C199.136 47.8307 198.744 47.7931 198.303 47.7195V45.6619H198.772C199.197 45.6619 199.496 45.5671 199.671 45.3802C199.846 45.1933 199.933 44.8503 199.933 44.3514V37.6291H208.634V47.7882ZM220.015 47.7882H216.885V40.1246H214.437V43.249C214.437 44.5334 214.371 45.4771 214.234 46.0803C214.097 46.6837 213.781 47.1258 213.281 47.4075C212.781 47.6888 211.974 47.8307 210.858 47.8307C210.516 47.8307 210.125 47.7931 209.684 47.7195V45.6619H210.153C210.578 45.6619 210.877 45.5671 211.052 45.3802C211.226 45.1933 211.314 44.8503 211.314 44.3514V37.6291H220.015V47.7882ZM222.081 37.6291H230.469V39.7979H225.218V41.4135H230.089V43.4857H225.218V45.4869H230.622V47.7882H222.081V37.6291ZM242.934 49.9999H240.413V47.7882H233.946V49.9999H231.429V45.4464H232.474C233.059 43.8051 233.351 41.9552 233.351 39.8952V37.6291H241.843V45.4464H242.934V49.9999ZM238.713 45.4464V40.1246H236.198V40.2546C236.198 41.6596 235.96 43.3909 235.486 45.4464H238.713ZM258.401 47.7882H254.875L253.66 45.1627C253.37 44.5428 253.143 44.1551 252.983 44.0014C252.82 43.8452 252.598 43.7695 252.313 43.7695V47.7882H249.188V43.7695C248.897 43.7695 248.674 43.8452 248.511 44.0014C248.35 44.1551 248.126 44.5428 247.841 45.1627L246.624 47.7882H243.1L244.475 45.0089C244.852 44.2377 245.211 43.6702 245.551 43.3083C245.888 42.9464 246.279 42.6933 246.72 42.549C246.395 42.4165 246.133 42.2366 245.94 42.0121C245.746 41.7872 245.569 41.449 245.404 40.9927C245.242 40.5384 245.032 40.2096 244.772 40.0061C244.515 39.8028 244.119 39.701 243.583 39.701H243.425V37.5534C244.576 37.5534 245.423 37.6124 245.961 37.733C246.501 37.8536 246.888 38.0502 247.126 38.3267C247.362 38.6011 247.6 39.0553 247.841 39.687C248.159 40.5433 248.393 41.0589 248.546 41.2385C248.697 41.4208 248.912 41.5177 249.188 41.5296V37.6291H252.313V41.5296C252.584 41.5177 252.796 41.4208 252.948 41.2385C253.101 41.0589 253.337 40.5433 253.66 39.687C253.893 39.0553 254.131 38.6011 254.372 38.3267C254.61 38.0502 254.999 37.8536 255.54 37.733C256.078 37.6124 256.924 37.5534 258.075 37.5534V39.701H257.917C257.382 39.701 256.986 39.8028 256.728 40.0061C256.469 40.2096 256.257 40.5384 256.092 40.9927C255.927 41.449 255.747 41.7872 255.556 42.0121C255.365 42.2366 255.106 42.4165 254.778 42.549C255.226 42.6978 255.618 42.9534 255.955 43.3153C256.29 43.6771 256.646 44.2426 257.026 45.0089L258.401 47.7882Z" fill="#5E419D"/>
<path d="M162.063 3.35376H159.602V47.8531H162.063V3.35376Z" fill="#A0C74F"/>
</svg>
